<svg width="90" height="90" viewBox="0 0 90 90" fill="none" xmlns="http://www.w3.org/2000/svg">
<g filter="url(#filter0_d_17_7)">
<rect x="75" y="11" width="60" height="60" rx="30" transform="rotate(90 75 11)" fill="#FF6827"/>
</g>
<path d="M41.4457 30.2482C41.1427 30.2415 40.8451 30.3293 40.5943 30.4996C40.3436 30.6699 40.1521 30.9142 40.0465 31.1984C39.9409 31.4825 39.9265 31.7924 40.0052 32.0851C40.084 32.3779 40.252 32.6387 40.4858 32.8315L49.4096 40.4763L40.4858 48.1185C40.3241 48.2374 40.1886 48.3883 40.0879 48.562C39.9872 48.7357 39.9234 48.9284 39.9006 49.1279C39.8777 49.3274 39.8964 49.5294 39.9552 49.7213C40.0141 49.9133 40.112 50.0911 40.2427 50.2434C40.3735 50.3958 40.5343 50.5194 40.7151 50.6068C40.8959 50.6941 41.0927 50.7432 41.2934 50.7509C41.494 50.7587 41.6941 50.725 41.881 50.6518C42.068 50.5787 42.2379 50.4677 42.38 50.3259L52.5969 41.5843C52.7573 41.4474 52.8861 41.2774 52.9745 41.0859C53.0628 40.8944 53.1086 40.6859 53.1086 40.475C53.1086 40.2641 53.0628 40.0556 52.9745 39.8641C52.8861 39.6725 52.7573 39.5024 52.5969 39.3655L42.38 30.6155C42.1219 30.3863 41.7908 30.2559 41.4457 30.2478V30.2482Z" fill="#F2F2F2"/>
<defs>
<filter id="filter0_d_17_7" x="0" y="0" width="90" height="90" filterUnits="userSpaceOnUse" color-interpolation-filters="sRGB">
<feFlood flood-opacity="0" result="BackgroundImageFix"/>
<feColorMatrix in="SourceAlpha" type="matrix" values="0 0 0 0 0 0 0 0 0 0 0 0 0 0 0 0 0 0 127 0" result="hardAlpha"/>
<feOffset dy="4"/>
<feGaussianBlur stdDeviation="7.5"/>
<feColorMatrix type="matrix" values="0 0 0 0 0 0 0 0 0 0 0 0 0 0 0 0 0 0 0.1 0"/>
<feBlend mode="normal" in2="BackgroundImageFix" result="effect1_dropShadow_17_7"/>
<feBlend mode="normal" in="SourceGraphic" in2="effect1_dropShadow_17_7" result="shape"/>
</filter>
</defs>
</svg>
