<svg width="13" height="13" viewBox="0 0 13 13" fill="none" xmlns="http://www.w3.org/2000/svg">
<g clip-path="url(#clip0_1_418)">
<path fill-rule="evenodd" clip-rule="evenodd" d="M10.1149 11.7511C10.3294 11.9639 10.619 12.0838 10.9212 12.0851C11.2388 12.1182 11.5558 12.0181 11.7967 11.8086C11.8151 11.7913 11.833 11.7735 11.8503 11.755C12.2851 11.2906 12.2611 10.5616 11.7967 10.1268L7.70686 6.06095L11.7966 1.9712C12.159 1.52433 12.136 0.87866 11.743 0.458579C11.3083 -0.00596053 10.5794 -0.0301244 10.1148 0.404561L6.07788 4.44151L1.9592 0.34694C1.52797 -0.0223849 0.891929 -0.0223849 0.460657 0.34694C-0.0225458 0.760762 -0.0788019 1.48796 0.334982 1.97116L4.4416 6.07779L0.334976 10.1844C-0.111659 10.6337 -0.111659 11.3594 0.334976 11.8087C0.561442 12.0033 0.854672 12.1025 1.15283 12.0851C1.44709 12.0995 1.73561 12.0005 1.95916 11.8087L6.06581 7.702L10.1149 11.7511Z" fill="#FF6225"/>
</g>
<defs>
<clipPath id="clip0_1_418">
<rect width="12.1613" height="12.1613" fill="white"/>
</clipPath>
</defs>
</svg>
