<svg width="36" height="36" viewBox="0 0 36 36" fill="none" xmlns="http://www.w3.org/2000/svg">
<g filter="url(#filter0_d_1_152)">
<rect x="3" y="2" width="30" height="30" rx="15" fill="#FFDDDD"/>
</g>
<g clip-path="url(#clip0_1_152)">
<path fill-rule="evenodd" clip-rule="evenodd" d="M22.1149 22.7511C22.3294 22.9639 22.619 23.0838 22.9212 23.0851C23.2388 23.1182 23.5558 23.0181 23.7967 22.8086C23.8151 22.7913 23.833 22.7735 23.8503 22.755C24.2851 22.2906 24.2611 21.5616 23.7967 21.1268L19.7069 17.061L23.7966 12.9712C24.159 12.5243 24.136 11.8787 23.743 11.4586C23.3083 10.994 22.5794 10.9699 22.1148 11.4046L18.0779 15.4415L13.9592 11.3469C13.528 10.9776 12.8919 10.9776 12.4607 11.3469C11.9775 11.7608 11.9212 12.488 12.335 12.9712L16.4416 17.0778L12.335 21.1844C11.8883 21.6337 11.8883 22.3594 12.335 22.8087C12.5614 23.0033 12.8547 23.1025 13.1528 23.0851C13.4471 23.0995 13.7356 23.0005 13.9592 22.8087L18.0658 18.702L22.1149 22.7511Z" fill="#FF6225"/>
</g>
<defs>
<filter id="filter0_d_1_152" x="0" y="0" width="36" height="36" filterUnits="userSpaceOnUse" color-interpolation-filters="sRGB">
<feFlood flood-opacity="0" result="BackgroundImageFix"/>
<feColorMatrix in="SourceAlpha" type="matrix" values="0 0 0 0 0 0 0 0 0 0 0 0 0 0 0 0 0 0 127 0" result="hardAlpha"/>
<feOffset dy="1"/>
<feGaussianBlur stdDeviation="1.5"/>
<feComposite in2="hardAlpha" operator="out"/>
<feColorMatrix type="matrix" values="0 0 0 0 0 0 0 0 0 0 0 0 0 0 0 0 0 0 0.1 0"/>
<feBlend mode="normal" in2="BackgroundImageFix" result="effect1_dropShadow_1_152"/>
<feBlend mode="normal" in="SourceGraphic" in2="effect1_dropShadow_1_152" result="shape"/>
</filter>
<clipPath id="clip0_1_152">
<rect width="12.1613" height="12.1613" fill="white" transform="translate(12 11)"/>
</clipPath>
</defs>
</svg>
